<mxfile host="app.diagrams.net" modified="2025-02-06T03:11:36.425Z" agent="Mozilla/5.0 (Macintosh; Intel Mac OS X 10_15_7) AppleWebKit/537.36 (KHTML, like Gecko) Chrome/132.0.0.0 Safari/537.36" version="24.7.1" etag="R9ayDENgf01wgAyXBAKN" type="github">
  <diagram name="Page-1" id="ubIiarjNrpx4fFxjnNLp">
    <mxGraphModel>
      <root>
        <mxCell id="0" />
        <mxCell id="1" parent="0" />
      </root>
    </mxGraphModel>
  </diagram>
</mxfile>
